<svg xmlns="http://www.w3.org/2000/svg" viewBox="0 0 50.54 152"><defs><style>.cls-1{isolation:isolate;}.cls-2{fill:#3d2f22;}.cls-3{opacity:0.25;}.cls-4{fill:#fff;opacity:0.75;mix-blend-mode:overlay;}.cls-5{opacity:0.35;}.cls-6{fill:#14120e;}.cls-7{fill:#602f06;}</style></defs><g class="cls-1"><g id="Bow"><path class="cls-2" d="M75.31,13.93a4.07,4.07,0,0,0-4.76-.23,2.74,2.74,0,0,0-.83,4c8.54,11.73,22.77,36.24,22.1,68.61s-15.89,56.46-24.9,68a2.73,2.73,0,0,0,.66,4,4.08,4.08,0,0,0,4.77-.1c8.55-6.77,36.49-31.94,37.31-71.6S83.57,20.93,75.31,13.93Z" transform="translate(-62.73 -10)"/><path class="cls-3" d="M98.4,86.3a114,114,0,0,1-13.09,50.3,102.08,102.08,0,0,1-18.39,19.2c7.29-9.3,24.77-34.22,25.5-69.59S76.7,25.46,69.79,16A100.78,100.78,0,0,1,87.4,35.67,113.15,113.15,0,0,1,98.4,86.3Z" transform="translate(-62.73 -10)"/><path class="cls-4" d="M108.47,86.44c-.84,40.64-31,65.36-36.17,69.44a124.84,124.84,0,0,0,12.42-19.29c8.77-11.88,17.33-28.85,17.78-50.23S95.08,47.78,86.8,35.67A120.94,120.94,0,0,0,75.16,16C80.14,20.25,109.31,45.81,108.47,86.44Z" transform="translate(-62.73 -10)"/><g class="cls-5"><path d="M81.92,137.24a1.39,1.39,0,0,1-1.53,1.18,1.35,1.35,0,0,1-1.47-1.22,1.54,1.54,0,0,1,3,0Z" transform="translate(-62.73 -10)"/><path d="M80.3,142.8a1.55,1.55,0,0,1-3-.05,1.4,1.4,0,0,1,1.53-1.18A1.38,1.38,0,0,1,80.3,142.8Z" transform="translate(-62.73 -10)"/><path d="M86,131.32c0,.43-.55.78-1.19.77s-1.16-.37-1.16-.8.55-.78,1.19-.77S86,130.89,86,131.32Z" transform="translate(-62.73 -10)"/><path d="M85.93,134.35a.29.29,0,0,1-.32.25.29.29,0,0,1-.31-.26.28.28,0,0,1,.32-.24A.28.28,0,0,1,85.93,134.35Z" transform="translate(-62.73 -10)"/><ellipse cx="88.73" cy="122.24" rx="0.63" ry="0.78" transform="translate(-96.44 200.69) rotate(-89.87)"/><path d="M92.08,124.69a.61.61,0,0,1-.67.51.59.59,0,0,1-.65-.53.6.6,0,0,1,.67-.52A.61.61,0,0,1,92.08,124.69Z" transform="translate(-62.73 -10)"/><path d="M91.85,119.48a1.23,1.23,0,0,1-1.51.49.93.93,0,0,1-.66-1.25,1.23,1.23,0,0,1,1.51-.48A.92.92,0,0,1,91.85,119.48Z" transform="translate(-62.73 -10)"/><path d="M91.54,115.09a1.23,1.23,0,0,1-1.51.49.93.93,0,0,1-.66-1.25,1.23,1.23,0,0,1,1.51-.49A.93.93,0,0,1,91.54,115.09Z" transform="translate(-62.73 -10)"/><path d="M94.26,112a1.29,1.29,0,0,1-1.58.51,1,1,0,0,1-.69-1.31,1.28,1.28,0,0,1,1.57-.5A1,1,0,0,1,94.26,112Z" transform="translate(-62.73 -10)"/><path d="M95,107a.43.43,0,0,1-.5.11c-.22-.06-.36-.22-.3-.35s.27-.18.49-.12S95,106.9,95,107Z" transform="translate(-62.73 -10)"/><path d="M93.34,105.62a.54.54,0,0,1-.66.25.41.41,0,0,1-.32-.54.54.54,0,0,1,.65-.24A.42.42,0,0,1,93.34,105.62Z" transform="translate(-62.73 -10)"/><path d="M97.45,93.61a1.31,1.31,0,1,1-1.25-1A1.15,1.15,0,0,1,97.45,93.61Z" transform="translate(-62.73 -10)"/><path d="M97.38,99.62c-.08.21-.26.34-.38.31s-.16-.24-.08-.45.26-.34.39-.3S97.47,99.41,97.38,99.62Z" transform="translate(-62.73 -10)"/><ellipse cx="95.31" cy="98.2" rx="0.23" ry="0.28" transform="translate(-73.32 174.88) rotate(-85.16)"/><path d="M95.69,89.16c0,.32-.42.58-.92.57s-.9-.27-.9-.6.42-.58.92-.57S95.69,88.84,95.69,89.16Z" transform="translate(-62.73 -10)"/><path d="M87.49,39.19c0,.33-.42.59-.92.58s-.9-.28-.89-.6.42-.58.92-.58S87.5,38.87,87.49,39.19Z" transform="translate(-62.73 -10)"/><path d="M96.32,71.89c0,.32-.42.58-.92.57s-.9-.27-.89-.6.42-.58.92-.57S96.33,71.56,96.32,71.89Z" transform="translate(-62.73 -10)"/><path d="M91.88,47c0,.33-.42.58-.92.58s-.9-.28-.89-.6.42-.59.92-.58S91.89,46.65,91.88,47Z" transform="translate(-62.73 -10)"/><path d="M96.39,68.81c0,.32-.42.58-.92.57s-.9-.28-.9-.6.42-.58.92-.57S96.39,68.48,96.39,68.81Z" transform="translate(-62.73 -10)"/><path d="M95.89,62.06c0,.32-.42.58-.92.57s-.9-.27-.89-.6.42-.58.92-.57S95.9,61.74,95.89,62.06Z" transform="translate(-62.73 -10)"/><ellipse cx="95.78" cy="84.36" rx="0.32" ry="0.4" transform="translate(-51.52 169.95) rotate(-89.87)"/><path d="M98.22,82.2c0,.13-.26.24-.58.23s-.57-.11-.57-.25.26-.24.58-.24S98.22,82.06,98.22,82.2Z" transform="translate(-62.73 -10)"/><ellipse cx="95.27" cy="78.52" rx="0.51" ry="0.64" transform="translate(-46.19 163.61) rotate(-89.87)"/><ellipse cx="98.17" cy="74.64" rx="0.51" ry="0.64" transform="matrix(0, -1, 1, 0, -39.43, 162.65)"/><ellipse cx="96.65" cy="75.88" rx="0.23" ry="0.29" transform="translate(-42.17 162.36) rotate(-89.87)"/><ellipse cx="94.96" cy="102.09" rx="1.2" ry="1.05" transform="translate(-74.68 2.59) rotate(-7.14)"/><path d="M88.73,127.2a1.05,1.05,0,0,1-1.16.9,1,1,0,0,1-1.13-.93,1.06,1.06,0,0,1,1.17-.9A1,1,0,0,1,88.73,127.2Z" transform="translate(-62.73 -10)"/><path d="M93.17,63.72a.61.61,0,0,1-.67.52.59.59,0,0,1-.65-.54.61.61,0,0,1,.67-.51A.59.59,0,0,1,93.17,63.72Z" transform="translate(-62.73 -10)"/><path d="M96,57.65a1.21,1.21,0,1,1-1.15-.95A1,1,0,0,1,96,57.65Z" transform="translate(-62.73 -10)"/><path d="M92.11,51.69a1.15,1.15,0,0,1-1.25,1,1.11,1.11,0,0,1-1.21-1,1.26,1.26,0,0,1,2.46,0Z" transform="translate(-62.73 -10)"/><path d="M87.27,45.62c0,.13-.19.24-.43.24s-.42-.12-.42-.25.2-.25.43-.25S87.27,45.48,87.27,45.62Z" transform="translate(-62.73 -10)"/><path d="M85.75,33.19a1.18,1.18,0,0,1-1.3,1,1.16,1.16,0,0,1-1.25-1,1.31,1.31,0,0,1,2.55,0Z" transform="translate(-62.73 -10)"/><path d="M89.18,39.81c0,.22-.11.39-.25.39s-.24-.18-.24-.4.12-.4.26-.39S89.19,39.59,89.18,39.81Z" transform="translate(-62.73 -10)"/><ellipse cx="88.62" cy="43.21" rx="1.19" ry="1.06" transform="translate(-63.25 -8.91) rotate(-0.7)"/><path d="M98.24,68.63a1.07,1.07,0,0,1-1.17.9A1,1,0,0,1,96,68.6a1.05,1.05,0,0,1,1.16-.9A1,1,0,0,1,98.24,68.63Z" transform="translate(-62.73 -10)"/><path d="M87.79,119.07c-.14.29-.42.48-.62.41s-.25-.37-.1-.67.42-.48.62-.41S87.94,118.77,87.79,119.07Z" transform="translate(-62.73 -10)"/></g><path class="cls-6" d="M72.77,16.08c5,4.21,34.15,29.77,33.31,70.41s-31,65.35-36.18,69.43c7.3-9.3,24.78-34.21,25.51-69.58S79.68,25.58,72.77,16.08ZM72.9,10a8.09,8.09,0,0,0-4.58,1.31,5.49,5.49,0,0,0-1.65,8c8.33,11.45,22.21,35.37,21.56,67s-15.5,55.1-24.3,66.32a5.46,5.46,0,0,0,1.33,8,8.16,8.16,0,0,0,9.54-.2c8.8-7,37.61-32.91,38.45-73.77S86.36,19,77.84,11.78A7.87,7.87,0,0,0,72.9,10Z" transform="translate(-62.73 -10)"/><rect class="cls-7" x="7.27" y="14" width="1" height="120"/></g></g></svg>