<svg xmlns="http://www.w3.org/2000/svg" viewBox="0 0 131 131"><defs><style>.cls-1{isolation:isolate;}.cls-2{fill:#68462c;}.cls-3{fill:#fff;opacity:0.75;mix-blend-mode:overlay;}.cls-4{opacity:0.25;}.cls-5{fill:#14120e;}</style></defs><g class="cls-1"><g id="Staff"><path class="cls-2" d="M26.36,149.22a4.41,4.41,0,0,1-.86-1.28c-1.18-2.67.66-4.73,2.61-6.9a62.75,62.75,0,0,0,5.09-6.33c1.06-1.51,1.6-2.43,2.09-3.25a24.73,24.73,0,0,1,2.65-3.81,23.28,23.28,0,0,1,3.58-3.55,20.86,20.86,0,0,0,3-2.95,35.85,35.85,0,0,0,2.29-3,49.2,49.2,0,0,1,3.77-4.78c.37-.43,1.2-1.33,3-3.3l.12-.13a45,45,0,0,1,4.52-4.64,19,19,0,0,1,5.07-2.89l.71-.3C66,101.27,66.91,100,69,97c.76-1.11,1.63-2.37,2.72-3.81a76.52,76.52,0,0,1,9-9.86c3.6-3.45,6.7-6.42,10-12.72l.12-.2c1.29-2,2.05-3.54,2.61-4.63,1-2,1.87-3.67,4.24-4.31,4-1.08,7.5,1.79,9.62,3.5a34.58,34.58,0,0,1,3.44,3.1,4.86,4.86,0,0,0,1.16,1c4,2.56,9.07,1.93,11,1.69a24.67,24.67,0,0,0,2.74-.52,23.56,23.56,0,0,0,7.1-2.58c4.11-2.65,5.4-7.74,5.62-8.73a16.9,16.9,0,0,0-1-9.65c-1-3-2.59-7.43-6.9-9.74-4.56-2.45-10.7-1.87-12.53.32-.14.17-.32.42-.56.74-.79,1-2.11,2.78-4.13,5a11.18,11.18,0,0,1-2.4,2.26c-4.54,2.73-11,.09-14.11-4.07a10.69,10.69,0,0,1-2.14-7.67,3.82,3.82,0,0,1,1.74-2.69c2.27-1.36,4.18.54,5,1.35.47.47,1.24,1.24,1.64,1.24a8.78,8.78,0,0,0,1.6-1.73,25.4,25.4,0,0,1,3.15-3.47C113.21,26,120.36,26,123.79,26a26.1,26.1,0,0,1,16.64,5.53c9.09,7.32,9.87,18.43,9.9,21.66.12,15.86-12.59,25.13-15.14,26.83s-8.76,5.83-16.26,5.13a48,48,0,0,1-11.09-2.53c-.66-.25-1.24-.49-1.77-.71-1.68-.69-2.26-.9-3.15-.78-1.43.18-2.63,1.18-4.78,3.35a19,19,0,0,0-1.51,1.72,23.65,23.65,0,0,1-5.41,5.14c-.67.48-1.38,1-2.31,1.77-.67.56-1,.95-8.44,9.29L79.13,104c-.72.8-1.34,1.5-1.51,1.71-.57.83-1,1.6-1.47,2.35a15.82,15.82,0,0,1-4.87,5.68,16.59,16.59,0,0,1-2.63,1.49l-.86.42-.16.16-.42.15c-.37.2-1.21.68-2,1.21-1,.82-5.39,6-8,9.15-1.68,2-3.12,3.72-4.1,4.82a32.16,32.16,0,0,1-3,3l-.12.11c-.51.44-1.57,1.37-3.2,2.57s-2.49,1.7-3.18,2.12a11.64,11.64,0,0,0-1,.64c-1.27,1-1.63,2.06-2.17,3.92s-1.3,4.49-3.9,6.14a9.62,9.62,0,0,1-7.73,1A5.79,5.79,0,0,1,26.36,149.22Z" transform="translate(-22.5 -22.5)"/><path class="cls-3" d="M140.75,35.31a23.55,23.55,0,0,0-14.85-4.87c-3.3,0-9.49-.07-14.22,4.09-3.09,2.72-4.07,5.92-6.65,5.91s-4.28-3.52-5.16-3c-.63.38-.54,2.65.48,4.7a10.7,10.7,0,0,1-2.22-1.75,10.92,10.92,0,0,1-.77-.89c-1.7-2.26-2-5.46-1.23-5.92s2.46,3,5.16,3,3.56-3.19,6.65-5.91c4.73-4.16,10.92-4.12,14.22-4.09A23.49,23.49,0,0,1,137,31.48a22.2,22.2,0,0,1,2,1.77A23.75,23.75,0,0,1,140.75,35.31Z" transform="translate(-22.5 -22.5)"/><path class="cls-3" d="M136.11,71.77a26.65,26.65,0,0,1-7.71,2.79,25.81,25.81,0,0,1-3.05.58c-2.14.27-7.95,1-12.85-2.12-1.81-1.15-1.2-1.28-4.87-4.26-2.31-1.86-4.72-3.6-7.09-3a2.23,2.23,0,0,0-1.08.62c-.91.94-1.45,2.92-4.07,7.06-6,11.48-11.48,12.67-19.27,23-3.93,5.21-5,8.14-8.78,9.84a19.26,19.26,0,0,0-5.15,2.8,44.85,44.85,0,0,0-4.2,4.34c-1.82,2-2.73,3-3.09,3.38-3.45,3.93-3.52,4.81-6,7.73-3.18,3.66-3.71,3-6.58,6.46a21.23,21.23,0,0,0-2.22,3.14c-.27.17-.51.34-.77.53a9.16,9.16,0,0,0-3.23,5.42c-.51,1.78-1,3.45-2.66,4.52a5.93,5.93,0,0,1-1.82.75c-1.91.47-3.95.1-4.77-.74a1.41,1.41,0,0,1-.27-.4c-.68-1.54,2.61-3.35,7.42-10.23,2.54-3.64,2.36-4.18,4.58-6.85,2.87-3.44,3.4-2.8,6.58-6.46,2.52-2.92,2.59-3.8,6-7.73.36-.41,1.27-1.39,3.09-3.38a44.85,44.85,0,0,1,4.2-4.34,19.26,19.26,0,0,1,5.15-2.8c3.8-1.7,4.85-4.63,8.78-9.84,7.79-10.31,13.24-11.5,19.27-23,2.62-4.14,3.16-6.12,4.07-7.06a2.23,2.23,0,0,1,1.08-.62c2.37-.64,4.78,1.1,7.09,3,3.67,3,3.06,3.11,4.87,4.26,4.9,3.11,10.71,2.39,12.85,2.12a25.81,25.81,0,0,0,3-.58,25.49,25.49,0,0,0,8-3c5.25-3.38,6.72-9.68,6.92-10.61a19.81,19.81,0,0,0-1.12-11.32,27.08,27.08,0,0,0-3.08-6.63,14.23,14.23,0,0,1,2,1.73c2.75,2.83,4,6.37,4.81,8.76A19.81,19.81,0,0,1,143.29,61a17.5,17.5,0,0,1-.81,2.65A33.52,33.52,0,0,1,136.11,71.77Z" transform="translate(-22.5 -22.5)"/><path class="cls-4" d="M117.8,39.31c-.6.72-2,2.75-4.61,5.66a9.91,9.91,0,0,1-1.74,1.72c-2.66,1.59-6.93.3-9.58-2.44a10.92,10.92,0,0,1-.77-.89,7.69,7.69,0,0,1-.75-1.22c2.45,1.45,5.36,1.89,7.36.69a9.91,9.91,0,0,0,1.74-1.72c2.63-2.91,4-4.94,4.61-5.66,2.91-3.48,10.58-4,16.08-1a14.17,14.17,0,0,1,3.49,2.64,16.05,16.05,0,0,1,1.72,2.13c-.46-.32-.95-.62-1.47-.91C128.38,35.32,120.7,35.83,117.8,39.31Z" transform="translate(-22.5 -22.5)"/><path class="cls-4" d="M135.75,78.93c-2.43,1.62-7.92,5.28-14.42,4.67A45.58,45.58,0,0,1,111,81.23c-2.82-1.06-4.12-1.93-6.28-1.64-2.43.32-4.18,1.9-6.45,4.19-1.69,1.7-1.64,2-3.14,3.62-2.29,2.44-3.27,2.62-5.89,4.81-.85.72-1.16,1.05-8.74,9.6-1.9,2.14-2.86,3.2-3,3.45-2.17,3.13-2.7,5.27-5.65,7.35a29.28,29.28,0,0,1-3.58,1.93s-.33.17-.79.44-1.09.64-1.69,1c-1.59,1.07-9.68,11.11-12.63,14.44a27.92,27.92,0,0,1-2.74,2.78c-.46.4-1.46,1.3-3.13,2.52-2.4,1.76-3.23,2.05-4.19,2.78-4.12,3.1-2.45,7.75-5.89,9.94-2.21,1.41-5.5,1.13-6.59,0a1.41,1.41,0,0,1-.27-.4c-.31-.7.2-1.45,1.3-2.72s2.59-2.82,4.48-5.27c.52-.68,1.07-1.43,1.64-2.24,1.23-1.76,1.82-2.8,2.36-3.71a39.68,39.68,0,0,0,3.42-2.25c1.67-1.22,2.67-2.12,3.13-2.52a27.92,27.92,0,0,0,2.74-2.78c2.95-3.33,11-13.37,12.63-14.44.6-.4,1.22-.77,1.69-1l.79-.44A29.28,29.28,0,0,0,68,108.75c2.95-2.08,3.48-4.22,5.65-7.35.18-.25,1.14-1.31,3-3.45,7.58-8.56,7.89-8.88,8.74-9.6,2.62-2.19,3.6-2.37,5.89-4.81,1.5-1.59,1.45-1.92,3.14-3.62,2.27-2.29,4-3.87,6.45-4.19,2.16-.29,3.46.58,6.28,1.64a45.58,45.58,0,0,0,10.36,2.37c6.5.61,12-3,14.42-4.67a31.65,31.65,0,0,0,4.1-3.3l.26-.17a16.26,16.26,0,0,0,6.11-8,25.89,25.89,0,0,0,3.33-12.84,27.44,27.44,0,0,0-5.06-15.49l0,0a22.2,22.2,0,0,1,1.95,1.77c6.6,6.82,6.81,16.11,6.82,17.55C149.66,69.36,137.25,77.93,135.75,78.93Z" transform="translate(-22.5 -22.5)"/><path class="cls-5" d="M140.86,35.19c6.6,6.81,6.81,16.1,6.82,17.54.11,14.7-12.3,23.27-13.8,24.27-2.43,1.62-7.92,5.28-14.42,4.67a45.88,45.88,0,0,1-10.36-2.36c-2.82-1.07-4.12-1.94-6.28-1.65-2.44.32-4.18,1.9-6.45,4.19-1.69,1.71-1.64,2-3.14,3.63-2.29,2.43-3.27,2.61-5.89,4.81-.85.71-1.16,1-8.75,9.59-1.89,2.14-2.86,3.2-3,3.46-2.17,3.12-2.7,5.26-5.65,7.34a29.28,29.28,0,0,1-3.58,1.93h0s-1.27.68-2.47,1.49c-1.59,1.06-9.68,11.11-12.63,14.44a31.29,31.29,0,0,1-2.74,2.77c-.46.4-1.47,1.3-3.13,2.52-2.4,1.76-3.22,2-4.19,2.78-4.12,3.09-2.45,7.75-5.89,9.94-2.22,1.41-5.5,1.13-6.59,0a1.28,1.28,0,0,1-.27-.4c-.68-1.54,2.61-3.36,7.42-10.23,2.54-3.64,2.36-4.18,4.58-6.85,2.87-3.44,3.4-2.8,6.57-6.46,2.53-2.92,2.6-3.8,6.05-7.72.36-.41,1.27-1.4,3.09-3.38a42.06,42.06,0,0,1,4.2-4.34,18.67,18.67,0,0,1,5.14-2.8c3.81-1.71,4.86-4.64,8.79-9.85C82,84.22,87.48,83,93.52,71.55h0c3.47-5.48,3.29-7.17,5.15-7.68,2.37-.64,4.78,1.1,7.09,3,3.67,3,3.06,3.1,4.87,4.25,4.89,3.11,10.71,2.39,12.84,2.12a25.63,25.63,0,0,0,3.06-.58,25.71,25.71,0,0,0,8-3c5.24-3.38,6.71-9.68,6.91-10.61a19.82,19.82,0,0,0-1.12-11.32c-.83-2.39-2.06-5.93-4.81-8.76A13.9,13.9,0,0,0,132,36.35c-5.5-3-13.18-2.45-16.08,1-.6.72-2,2.75-4.61,5.66a9.42,9.42,0,0,1-1.74,1.72c-2.66,1.59-6.94.3-9.58-2.44a9.27,9.27,0,0,1-.77-.89c-1.71-2.26-2-5.46-1.23-5.92s2.46,3,5.16,3,3.55-3.2,6.65-5.92c4.73-4.16,10.92-4.11,14.22-4.09a23.46,23.46,0,0,1,14.87,4.9,19.76,19.76,0,0,1,2,1.78ZM145,30.94h0a26.69,26.69,0,0,0-2.49-2.27,29,29,0,0,0-18.41-6.17c-3.78,0-11.66-.08-18,5.53a26.23,26.23,0,0,0-3.17,3.41,10.47,10.47,0,0,0-.93-.75,6.23,6.23,0,0,0-6.85-.37A6.86,6.86,0,0,0,91.94,35a13.78,13.78,0,0,0,2.7,10.09,16.83,16.83,0,0,0,1.24,1.44C100,50.77,107,53.27,112.5,50a13.47,13.47,0,0,0,3.07-2.81c2.11-2.34,3.48-4.15,4.3-5.23l.47-.62c.82-.83,5.3-1.6,9,.38a8.43,8.43,0,0,1,2,1.56c1.82,1.88,2.72,4.46,3.45,6.54a13.87,13.87,0,0,1,.92,8c-.11.48-1.12,4.78-4.33,6.84a21,21,0,0,1-6.19,2.2,22.89,22.89,0,0,1-2.45.47c-1.63.2-5.94.74-9.1-1.27a2.36,2.36,0,0,1-.63-.53,36.82,36.82,0,0,0-3.7-3.34c-2.38-1.92-6.8-5.5-12.16-4-3.6,1-5,3.67-6.07,5.83a49.34,49.34,0,0,1-2.47,4.37l-.13.21-.11.21c-3.08,5.86-5.89,8.55-9.44,11.95a81.14,81.14,0,0,0-9.31,10.21c-1.13,1.5-2,2.79-2.8,3.93-2,2.89-2.53,3.57-3.72,4.1-.19.09-.4.17-.62.26a21.49,21.49,0,0,0-5.78,3.32,44.06,44.06,0,0,0-4.85,4.94l0,0c-1.88,2-2.74,3-3.14,3.43a54.17,54.17,0,0,0-4,5,31.79,31.79,0,0,1-2.1,2.73,18.35,18.35,0,0,1-2.67,2.6,25.59,25.59,0,0,0-4,4,26.13,26.13,0,0,0-2.93,4.2c-.48.81-1,1.64-2,3a59.2,59.2,0,0,1-4.87,6.05,24.14,24.14,0,0,0-2.38,2.92,7.44,7.44,0,0,0-.74,7.26,7.28,7.28,0,0,0,1.45,2.15c3.12,3.23,9.42,3.62,13.75.86,3.55-2.26,4.56-5.75,5.16-7.84.48-1.68.64-2,1.1-2.36.16-.11.36-.24.74-.47.75-.45,1.77-1.07,3.4-2.26s2.86-2.26,3.41-2.74l.11-.09a39.63,39.63,0,0,0,3.28-3.31c1-1.13,2.45-2.87,4.14-4.88C61.9,125,66,120.13,67.22,119c.77-.5,1.56-.94,1.74-1l.15-.08,0,0,1-.49a19.83,19.83,0,0,0,3-1.73A18.83,18.83,0,0,0,78.9,109c.41-.69.8-1.35,1.28-2.05.22-.26.77-.88,1.35-1.53l1.35-1.52c6.77-7.62,7.6-8.55,8.13-9,.85-.71,1.47-1.16,2.13-1.63a25.1,25.1,0,0,0,4.26-3.66c.87-.93,1.36-1.55,1.76-2.06a14.17,14.17,0,0,1,1.28-1.46c1.22-1.23,2.46-2.44,3.11-2.53h.07a12.92,12.92,0,0,1,1.64.6c.54.22,1.14.47,1.85.74a51.75,51.75,0,0,0,11.82,2.7c8.5.8,15.23-3.69,18.1-5.6s16.6-11.94,16.47-29.37c0-3.06-.71-13.67-8.53-21.74Z" transform="translate(-22.5 -22.5)"/></g></g></svg>