<svg xmlns="http://www.w3.org/2000/svg" viewBox="0 0 131 131"><defs><style>.cls-1{isolation:isolate;}.cls-2{fill:#606060;}.cls-3,.cls-6{fill:#fff;}.cls-3,.cls-5{opacity:0.75;mix-blend-mode:overlay;}.cls-4{opacity:0.25;}.cls-7{opacity:0.5;}.cls-12,.cls-8{opacity:0.35;}.cls-9{fill:#14120e;}.cls-10{fill:#68462c;}.cls-11{fill:#443331;}</style></defs><g class="cls-1"><g id="Sword"><path class="cls-2" d="M50.84,25l72.62,72.62L97.63,123.46,25,50.84c1.15-4.75,2.3-9.51,3.45-14.25q.88-3.63,1.75-7.26Z" transform="translate(-22.5 -22.5)"/><path class="cls-3" d="M105.58,116.58l-7.16,7.16L28.8,54.12q-1.61-3.84-3.22-7.68l1.47-8.39Z" transform="translate(-22.5 -22.5)"/><path class="cls-4" d="M123.63,98.53l-7.17,7.16L37.94,27.16l10.22-1.45,5.42,2.78Z" transform="translate(-22.5 -22.5)"/><g class="cls-5"><polygon class="cls-6" points="52.82 27 59.61 33.79 25.09 50.92 18.3 44.13 52.82 27"/><path class="cls-6" d="M51.15,25.33l9.8,9.8L26.43,52.26,25,50.84c1.15-4.75,2.3-9.51,3.45-14.25Z" transform="translate(-22.5 -22.5)"/><polygon class="cls-6" points="88.4 62.58 100.96 75.14 83.58 92.52 72.29 98.12 53.89 79.71 88.4 62.58"/><polygon class="cls-6" points="67.19 41.37 70.59 44.77 36.07 61.9 32.67 58.5 67.19 41.37"/><polygon class="cls-6" points="64.61 38.79 66.31 40.49 31.8 57.62 30.1 55.93 64.61 38.79"/></g><path class="cls-7" d="M30,31.43l80,80c.61.61,2-.8,1.41-1.41l-80-80C30.81,29.41,29.4,30.81,30,31.43Z" transform="translate(-22.5 -22.5)"/><g class="cls-8"><path d="M112.15,99.91c.74.74.51,2.17-.52,3.19s-2.46,1.26-3.2.53-.5-2.17.53-3.2S111.41,99.17,112.15,99.91Z" transform="translate(-22.5 -22.5)"/><path d="M106,92.89c.48.48.22,1.52-.58,2.32s-1.83,1.05-2.32.57-.22-1.52.58-2.32S105.51,92.4,106,92.89Z" transform="translate(-22.5 -22.5)"/><path d="M109.84,95.17a.5.5,0,0,1-.11.67.5.5,0,0,1-.68.11.5.5,0,0,1,.11-.67A.5.5,0,0,1,109.84,95.17Z" transform="translate(-22.5 -22.5)"/><ellipse cx="92.67" cy="86.94" rx="1.37" ry="0.98" transform="translate(-56.83 68.49) rotate(-45)"/><path d="M100.05,82.12a1.22,1.22,0,1,1-1.4.23A1,1,0,0,1,100.05,82.12Z" transform="translate(-22.5 -22.5)"/><path d="M92.09,76.61a2.17,2.17,0,0,1-2.91,2.91,2.17,2.17,0,0,1,2.91-2.91Z" transform="translate(-22.5 -22.5)"/><path d="M82,69.45a2.27,2.27,0,0,1-3,3,2.27,2.27,0,0,1,3-3Z" transform="translate(-22.5 -22.5)"/><path d="M77.77,63.1c.15.15,0,.51-.25.8s-.65.4-.8.25,0-.51.25-.8S77.62,63,77.77,63.1Z" transform="translate(-22.5 -22.5)"/><path d="M74.24,64.7a1,1,0,1,1-1.11.19A.82.82,0,0,1,74.24,64.7Z" transform="translate(-22.5 -22.5)"/><path d="M62.7,50.13c.63.63.43,1.84-.44,2.71s-2.09,1.08-2.72.45-.42-1.84.45-2.71S62.08,49.51,62.7,50.13Z" transform="translate(-22.5 -22.5)"/><path d="M67.5,51.62c.25.25.31.58.14.75s-.5.1-.74-.14-.31-.58-.14-.75A.56.56,0,0,1,67.5,51.62Z" transform="translate(-22.5 -22.5)"/><ellipse cx="64.54" cy="57.58" rx="0.5" ry="0.36" transform="translate(-44.31 40) rotate(-45)"/><path d="M59.36,42.31c.36.36.15,1.15-.47,1.77s-1.41.83-1.77.47-.15-1.16.47-1.78S59,41.94,59.36,42.31Z" transform="translate(-22.5 -22.5)"/><path d="M51.5,43.25a.75.75,0,0,1-1,1c-.2-.2-.13-.58.14-.86S51.3,43.05,51.5,43.25Z" transform="translate(-22.5 -22.5)"/><path d="M50.77,37.15c.15.15-.05.59-.44,1s-.83.59-1,.44,0-.59.43-1S50.62,37,50.77,37.15Z" transform="translate(-22.5 -22.5)"/><ellipse cx="43.94" cy="35.12" rx="1.11" ry="0.8" transform="translate(-34.46 18.85) rotate(-45)"/><path d="M49.67,33a.45.45,0,0,1-.1.61.38.38,0,1,1-.51-.51A.45.45,0,0,1,49.67,33Z" transform="translate(-22.5 -22.5)"/><ellipse cx="65.91" cy="47.69" rx="2.08" ry="1.67" transform="translate(-36.92 38.07) rotate(-45)"/><path d="M99.7,76.86a2.12,2.12,0,0,1-2.83,2.84,2.12,2.12,0,0,1,2.83-2.84Z" transform="translate(-22.5 -22.5)"/><path d="M88.24,82.52a.71.71,0,1,1-1.13-.17A.83.83,0,0,1,88.24,82.52Z" transform="translate(-22.5 -22.5)"/></g><path class="cls-9" d="M51.94,22.69,26.8,26.8,22.69,51.94a2.48,2.48,0,0,0,.48,2.69l72.54,72.54a2.36,2.36,0,0,0,2.3.59,4.41,4.41,0,0,0,2.68-1.41l12.83-12.83,12.83-12.83A4.41,4.41,0,0,0,127.76,98a2.36,2.36,0,0,0-.59-2.3L54.63,23.17A2.48,2.48,0,0,0,51.94,22.69Zm67.63,76.69-10.1,10.09-10.09,10.1L29.69,49.88l2.83-17.3h0v0l17.3-2.83Z" transform="translate(-22.5 -22.5)"/><path class="cls-10" d="M136.13,150l14.56-13.44-25.18-24L111.63,126Z" transform="translate(-22.5 -22.5)"/><rect class="cls-7" x="129.74" y="109.6" width="9.6" height="36.9" transform="translate(-73.64 110.14) rotate(-45)"/><path class="cls-9" d="M125.3,116l21.85,21.84-9.34,9.34L116,125.3,125.3,116Zm-4-4-9.34,9.34c-2.7,2.7-3.08,6.7-.84,8.94L132.92,152c2.24,2.24,6.24,1.86,8.94-.84l9.34-9.34c2.7-2.7,3.08-6.7.84-8.94L130.2,111.08c-2.24-2.24-6.24-1.86-8.94.84Z" transform="translate(-22.5 -22.5)"/><path class="cls-11" d="M89.92,141.73a115.06,115.06,0,0,0,32.32-24.13A112.43,112.43,0,0,0,142,89.15l-8.7-6.88a146.26,146.26,0,0,1-23.3,29.3,144.65,144.65,0,0,1-27.6,21.16Z" transform="translate(-22.5 -22.5)"/><path class="cls-12" d="M142.3,92.29c-3.12,4.51-6.88,9.57-11.36,15-4,4.83-7.91,9.09-11.51,12.78l-9.89-9.9c3.42-3.64,7.07-7.73,10.81-12.27,4.51-5.48,8.38-10.66,11.65-15.35Z" transform="translate(-22.5 -22.5)"/><rect class="cls-3" x="87.13" y="127.93" width="7.04" height="12.62" transform="translate(-90.87 80.92) rotate(-45)"/><path class="cls-9" d="M131.73,86.25l6.7,6.7a141.37,141.37,0,0,1-20.17,25.31A142.86,142.86,0,0,1,93,138.43l-6.7-6.7a140.55,140.55,0,0,0,25.31-20.17,142.41,142.41,0,0,0,20.17-25.31Zm-49,42A10.9,10.9,0,0,0,80.26,132c-.79,2.11-.58,4.05.56,5.19l6.7,6.7c1.47,1.48,4.22,1.37,6.87-.27a151.9,151.9,0,0,0,27.37-21.83,151.9,151.9,0,0,0,21.83-27.37c1.64-2.65,1.75-5.4.27-6.87l-6.7-6.7c-1.14-1.14-3.08-1.35-5.19-.56a10.9,10.9,0,0,0-3.75,2.48,12,12,0,0,0-1.64,2.07,130.93,130.93,0,0,1-18.53,23.24,130.93,130.93,0,0,1-23.24,18.53,12,12,0,0,0-2.07,1.64Z" transform="translate(-22.5 -22.5)"/></g></g></svg>